<svg width="17" height="23" viewBox="0 0 17 23" fill="none" xmlns="http://www.w3.org/2000/svg">
<path d="M10.9493 5.27808C10.6835 4.15647 9.67683 3.3401 8.52484 3.33301C7.35158 3.32591 6.3272 4.13162 6.05072 5.26388C5.79551 6.32161 6.25276 7.70588 7.71668 8.25959C6.15706 13.0264 4.59745 17.7933 3.02365 22.5921C3.10518 22.5531 3.15126 22.5318 3.19734 22.5069C4.90582 21.6089 6.61786 20.7109 8.3228 19.8094C8.44686 19.7419 8.53902 19.7455 8.65953 19.8094C10.3538 20.7003 12.0482 21.5876 13.7425 22.475C13.8063 22.5069 13.8736 22.5389 13.9764 22.5886C12.4026 17.7827 10.8395 13.0193 9.27984 8.25604C10.7437 7.70588 11.201 6.32516 10.9493 5.27808ZM6.86952 5.84244C6.87307 4.94444 7.61388 4.20971 8.51066 4.21326C9.40744 4.21681 10.1376 4.95864 10.1341 5.86019C10.1305 6.76174 9.39326 7.48937 8.49294 7.48582C7.59262 7.48227 6.86598 6.74399 6.86952 5.84244ZM4.53719 20.8068C4.83848 19.8875 5.12559 19.0108 5.41979 18.1163C6.1287 18.4854 6.8199 18.8475 7.54299 19.2273C6.52924 19.7597 5.55448 20.2708 4.53719 20.8068ZM12.4664 20.8103C11.4349 20.2708 10.4566 19.7597 9.44289 19.2273C10.1695 18.8475 10.8643 18.4819 11.5803 18.1021C11.8745 19.0001 12.1616 19.8804 12.4664 20.8103ZM11.3002 17.2502C11.0734 17.3709 10.8536 17.4845 10.6339 17.6016C9.9604 17.9566 9.28693 18.3115 8.60991 18.6629C8.5532 18.6913 8.45749 18.7091 8.40432 18.6807C7.51818 18.2228 6.63558 17.7578 5.75298 17.2964C5.7388 17.2893 5.72462 17.2751 5.69981 17.2538C6.62495 14.4285 7.55363 11.596 8.47876 8.76715C8.49294 8.76715 8.50712 8.76715 8.5213 8.76715C9.44643 11.5925 10.3716 14.4143 11.3002 17.2502Z" fill="#40BFFF"/>
<path d="M15.3837 1.33106C14.9831 0.858993 14.5294 0.450811 14.0154 0.106518C13.8028 -0.0354588 13.5405 0.014233 13.4022 0.209451C13.2569 0.411767 13.3065 0.677973 13.5192 0.834147C13.544 0.851894 13.5688 0.866092 13.5936 0.883839C16.7873 3.11287 16.9823 7.7626 13.9871 10.2543C13.9339 10.3004 13.8737 10.343 13.8276 10.3963C13.7106 10.5347 13.6858 10.6944 13.7567 10.8612C13.8276 11.0245 13.9623 11.1239 14.1324 11.0955C14.2777 11.0707 14.4373 11.0245 14.5471 10.9322C16.1457 9.56925 16.9539 7.83359 17 5.98079C17 4.12445 16.4258 2.55561 15.3837 1.33106Z" fill="#40BFFF"/>
<path d="M3.18318 10.9606C3.35332 10.7547 3.29661 10.5098 3.0733 10.2933C2.73657 9.96675 2.37857 9.65085 2.095 9.27816C0.170291 6.75453 0.588552 3.19802 3.03077 1.17486C3.18673 1.04708 3.35332 0.937045 3.50929 0.812815C3.66525 0.692135 3.71842 0.496918 3.65461 0.319447C3.59081 0.138427 3.42422 0.0248459 3.21863 0C3.11584 0.0532412 3.00596 0.0922847 2.91025 0.156174C-0.311772 2.4065 -0.847004 6.75453 1.24784 9.61181C1.61648 10.1158 2.03829 10.5666 2.50617 10.9783C2.74366 11.1842 3.01304 11.1664 3.18318 10.9606Z" fill="#40BFFF"/>
<path d="M11.7469 2.32128C13.5051 3.55293 14.0438 5.86359 13.0017 7.73413C12.7536 8.17781 12.431 8.5576 12.0411 8.88414C11.8958 9.00482 11.8391 9.161 11.8852 9.34202C11.9277 9.50884 12.0411 9.61887 12.2077 9.66147C12.3779 9.70406 12.5161 9.64017 12.6473 9.53014C13.8063 8.5221 14.3806 7.24077 14.4125 5.82455C14.4018 4.82007 14.1821 3.98241 13.7354 3.20864C13.342 2.53425 12.8209 1.97699 12.1687 1.54751C11.9986 1.43393 11.8037 1.44103 11.6548 1.55106C11.5024 1.66464 11.4279 1.82791 11.4917 2.00184C11.5343 2.12607 11.6371 2.24675 11.7469 2.32128Z" fill="#40BFFF"/>
<path d="M4.34579 9.52322C4.57973 9.72909 4.84558 9.72554 5.01926 9.52677C5.19295 9.32801 5.1575 9.0618 4.9271 8.85948C4.90938 8.84529 4.89166 8.82754 4.87393 8.81334C2.87125 7.03864 3.04139 3.90451 5.21776 2.35341C5.27093 2.31437 5.32764 2.28243 5.37726 2.23983C5.52259 2.1156 5.56867 1.91329 5.49424 1.73937C5.42334 1.56899 5.26029 1.44831 5.07598 1.47671C4.959 1.49446 4.83849 1.5477 4.73924 1.61514C3.33559 2.62317 2.6373 4.00034 2.58414 5.67566C2.62313 7.2445 3.1938 8.51874 4.34579 9.52322Z" fill="#40BFFF"/>
</svg>
