<svg width="24" height="23" viewBox="0 0 24 23" fill="none" xmlns="http://www.w3.org/2000/svg">
<path d="M24 7.76927C24 10.5385 23.0769 13 21.0769 15C20.9231 15.1539 20.9231 15.1539 20.7692 15.3077C20.4615 15.6154 20 15.6154 19.6923 15.3077C19.3846 15 19.3846 14.5385 19.6923 14.2308C20 13.7693 20.4615 13.4616 20.7692 13C21.5384 11.9231 22 10.5385 22.3077 9.30774C22.6154 7.76927 22.3077 6.23081 21.8461 4.69235C21.3846 3.46158 20.7692 2.5385 20 1.61543L19.8461 1.46158C19.5384 1.15389 19.5384 0.69235 19.8461 0.384658C20.1538 0.0769654 20.6154 0.0769654 20.9231 0.384658C21.3846 0.846196 21.6923 1.15389 22 1.61543C23.0769 3.15389 23.6923 4.69235 23.8461 6.5385C24 7.00004 24 7.30774 24 7.76927Z" fill="#40BFFF"/>
<path d="M20.9231 7.76925C20.9231 9.76925 20.1538 11.6154 18.7692 13C18.4615 13.3077 18 13.3077 17.6923 13C17.3846 12.6923 17.3846 12.2308 17.6923 11.9231C18.4615 11.1539 19.0769 10.2308 19.2308 9.00002C19.6923 7.00002 19.2308 5.15387 17.6923 3.6154C17.5385 3.46156 17.3846 3.15387 17.3846 2.84617C17.3846 2.53848 17.6923 2.38463 18 2.23079C18.3077 2.07694 18.6154 2.23079 18.7692 2.38463C20 3.6154 20.6154 5.00002 20.9231 6.53848C20.9231 7.00002 20.9231 7.30771 20.9231 7.76925Z" fill="#40BFFF"/>
<path d="M0 7.76923C0 5 0.923077 2.53846 2.92308 0.538462C2.92308 0.384615 3.07692 0.384615 3.07692 0.230769C3.38462 -0.0769231 3.84615 -0.0769231 4.15385 0.230769C4.46154 0.538462 4.46154 1 4.15385 1.30769C3.84615 1.76923 3.53846 2.23077 3.23077 2.69231C2.46154 3.76923 2 5.15385 1.69231 6.38461C1.38462 7.92308 1.69231 9.46154 2.15385 11C2.61538 12.0769 3.23077 13 4 13.9231C4 13.9231 4.15385 13.9231 4.15385 14.0769C4.46154 14.3846 4.46154 14.8462 4.15385 15.1538C3.84615 15.4615 3.38462 15.4615 3.07692 15.1538C2.61538 14.6923 2.30769 14.3846 2 13.9231C0.923077 12.3846 0.307692 10.6923 0 9C0 8.53846 0 8.07692 0 7.76923Z" fill="#40BFFF"/>
<path d="M2.92309 7.76921C2.92309 5.76921 3.69232 3.92306 5.07694 2.53844C5.38463 2.23075 5.84617 2.23075 6.15386 2.53844C6.46156 2.84613 6.46156 3.30767 6.15386 3.61537C5.38463 4.3846 4.76925 5.30767 4.6154 6.53844C4.15386 8.53844 4.6154 10.3846 6.15386 11.9231C6.46156 12.0769 6.6154 12.3846 6.46155 12.6923C6.46155 13 6.15386 13.1538 5.84617 13.3077C5.53848 13.4615 5.23079 13.3077 5.07694 13.1538C4.00002 11.9231 3.38463 10.5384 3.07694 8.84613C3.07694 8.53844 2.92309 8.0769 2.92309 7.76921Z" fill="#40BFFF"/>
<path d="M15.6923 7.76926C15.6923 5.76926 14 4.07696 12 4.07696C10 4.07696 8.3077 5.76926 8.3077 7.76926C8.3077 9.61542 9.69231 11 11.3846 11.3077V21.6154C11.3846 21.9231 11.5385 22.077 11.8462 22.077H12C12.3077 22.077 12.4615 21.9231 12.4615 21.6154V11.3077C14.3077 11 15.6923 9.61542 15.6923 7.76926ZM12 10.077C10.6154 10.077 9.53847 9.00003 9.53847 7.76926C9.53847 6.38465 10.6154 5.30772 12 5.30772C13.3846 5.30772 14.4615 6.38465 14.4615 7.76926C14.4615 9.00003 13.3846 10.077 12 10.077Z" fill="#40BFFF"/>
</svg>
