<svg width="23" height="23" viewBox="0 0 23 23" fill="none" xmlns="http://www.w3.org/2000/svg">
<path d="M10.057 23C9.39749 22.7518 8.98532 22.3381 8.90288 21.5935C8.82045 21.1799 8.82045 20.6835 8.73802 20.2698C8.73802 20.1043 8.65558 19.9389 8.40828 19.8561C8.07854 19.7734 7.83124 19.6079 7.58394 19.5252C7.41907 19.4425 7.33664 19.4425 7.2542 19.5252C6.84203 19.8561 6.51229 20.1043 6.10012 20.4353C5.35822 21.0144 4.61631 20.9317 3.95684 20.2698C3.46223 19.7734 3.05006 19.3597 2.55546 18.8633C1.97842 18.2842 1.89598 17.5396 2.47302 16.8777C2.80276 16.464 3.05006 16.0504 3.3798 15.6367C3.46223 15.554 3.46223 15.3885 3.3798 15.3058C3.21493 15.0576 3.1325 14.7266 3.05006 14.4784C2.96763 14.313 2.88519 14.2302 2.72033 14.2302C2.30816 14.1475 1.81355 14.0648 1.31895 14.0648C0.494605 13.982 0 13.4029 0 12.5755C0 11.8309 0 11.1691 0 10.4245C0 9.67986 0.577039 9.01799 1.31895 8.93526C1.81355 8.85252 2.30816 8.76979 2.80276 8.76979C2.96763 8.76979 3.05006 8.68706 3.1325 8.52159C3.21493 8.19065 3.3798 7.94245 3.46223 7.69425C3.54467 7.52878 3.54467 7.44605 3.46223 7.28058C3.1325 6.86691 2.80276 6.45324 2.55546 6.12231C1.97842 5.46044 2.06085 4.71583 2.63789 4.05396C3.1325 3.55756 3.54467 3.14389 4.03927 2.64748C4.61631 2.06835 5.35822 1.98561 6.01769 2.48202C6.42986 2.81295 6.84203 3.14389 7.2542 3.47482C7.33664 3.55756 7.41907 3.55756 7.58394 3.47482C7.91367 3.30935 8.16098 3.22662 8.49071 3.06115C8.65558 2.97842 8.73802 2.89569 8.73802 2.73022C8.82045 2.23381 8.90288 1.73741 8.90288 1.24101C9.06775 0.579137 9.64479 0 10.3867 0C11.1286 0 11.7881 0 12.53 0C13.2719 0 13.9314 0.579137 14.0138 1.32374C14.0962 1.82015 14.1787 2.31655 14.1787 2.81295C14.1787 2.97842 14.2611 3.06115 14.426 3.14389C14.7557 3.22662 15.003 3.39209 15.3327 3.55756C15.4976 3.64029 15.58 3.64029 15.6625 3.55756C16.0747 3.22662 16.4868 2.97842 16.8166 2.64748C17.476 2.15108 18.2179 2.15108 18.8774 2.81295C19.372 3.30935 19.7842 3.72302 20.2788 4.21943C20.8558 4.79856 20.9383 5.54317 20.4437 6.20504C20.1139 6.61871 19.8666 7.03238 19.5369 7.44605C19.4544 7.61152 19.4544 7.69425 19.5369 7.85972C19.7018 8.10792 19.7842 8.35612 19.8666 8.68706C19.9491 8.93526 20.0315 8.93526 20.2788 9.01799C20.691 9.10072 21.1856 9.10072 21.5977 9.18346C22.3396 9.26619 22.7518 9.59713 22.9991 10.3417C22.9991 11.2518 22.9991 12.1619 22.9991 13.1547C22.7518 13.8166 22.3396 14.2302 21.5977 14.313C21.1856 14.3957 20.691 14.3957 20.2788 14.4784C20.1139 14.4784 19.9491 14.5612 19.8666 14.8094C19.7842 15.0576 19.6193 15.3885 19.5369 15.6367C19.4544 15.8022 19.4544 15.8849 19.6193 16.0504C19.9491 16.464 20.2788 16.795 20.5261 17.2086C21.0207 17.8705 21.0207 18.6151 20.3612 19.1943C19.8666 19.6907 19.4544 20.1043 18.9598 20.6007C18.3004 21.2626 17.5585 21.2626 16.899 20.6835C16.4868 20.3525 16.0747 20.1043 15.7449 19.7734C15.6625 19.6907 15.58 19.6907 15.4152 19.7734C15.1679 19.9389 14.8381 20.0216 14.5908 20.1043C14.3435 20.1871 14.2611 20.2698 14.2611 20.518C14.0962 20.6835 14.0138 21.1799 14.0138 21.5935C13.9314 22.3381 13.6016 22.7518 12.8597 23C11.9529 23 11.0462 23 10.057 23ZM3.21493 17.8705C3.21493 18.036 3.29736 18.1187 3.3798 18.2014C3.79197 18.6151 4.28657 19.1115 4.69874 19.5252C4.94605 19.7734 5.19335 19.8561 5.52308 19.6079C6.01769 19.1943 6.51229 18.8633 7.0069 18.4497C7.17177 18.2842 7.41907 18.2014 7.66637 18.3669C8.16098 18.6151 8.73802 18.8633 9.31505 19.0288C9.56236 19.1115 9.72722 19.277 9.72722 19.5252C9.80966 20.1871 9.89209 20.8489 9.97453 21.5108C10.057 21.8417 10.1394 21.9245 10.4691 21.9245C11.1286 21.9245 11.7881 21.9245 12.4476 21.9245C12.7773 21.9245 12.9422 21.8417 12.9422 21.5108C13.0246 20.8489 13.107 20.1871 13.1895 19.6079C13.1895 19.277 13.3543 19.1115 13.6841 19.0288C14.1787 18.8633 14.6733 18.6979 15.1679 18.3669C15.4152 18.2014 15.6625 18.2014 15.9098 18.4497C16.4044 18.8633 16.899 19.277 17.3936 19.6079C17.6409 19.8561 17.8882 19.7734 18.1355 19.5252C18.6301 19.1115 19.0423 18.6151 19.5369 18.2014C19.7842 17.9532 19.7842 17.705 19.6193 17.4568C19.2071 16.9604 18.795 16.464 18.4652 15.8849C18.3004 15.7194 18.3004 15.4712 18.3828 15.3058C18.6301 14.8094 18.8774 14.2302 19.0423 13.6511C19.1247 13.4029 19.2896 13.2374 19.5369 13.2374C20.1964 13.1547 20.8558 13.072 21.5153 12.9892C21.845 12.9065 21.9275 12.8237 21.9275 12.4928C21.9275 11.8309 21.9275 11.0863 21.9275 10.4245C21.9275 10.0935 21.7626 10.0108 21.5153 9.92806C20.8558 9.84533 20.1964 9.7626 19.5369 9.67986C19.2071 9.67986 19.0423 9.5144 18.9598 9.18346C18.795 8.60432 18.6301 8.10792 18.3004 7.61152C18.1355 7.36331 18.2179 7.11511 18.3828 6.94964C18.795 6.45324 19.2071 5.95684 19.5369 5.46043C19.7842 5.21223 19.7842 5.04677 19.5369 4.71583C19.1247 4.30216 18.6301 3.80576 18.2179 3.39209C17.9706 3.14389 17.7233 3.14389 17.3936 3.30935C16.899 3.72302 16.4044 4.05396 15.9098 4.46763C15.6625 4.6331 15.4976 4.71583 15.2503 4.55036C14.7557 4.30216 14.1787 4.05396 13.6841 3.88849C13.4368 3.80576 13.2719 3.64029 13.2719 3.39209C13.1895 2.73022 13.107 2.06835 13.0246 1.40648C12.9422 1.07554 12.8597 0.992806 12.53 0.992806C11.8705 0.992806 11.211 0.992806 10.5516 0.992806C10.2218 0.992806 10.057 1.15827 10.057 1.40648C9.97453 2.06835 9.89209 2.73022 9.80966 3.30935C9.80966 3.64029 9.64479 3.80576 9.31505 3.88849C8.65558 4.13669 8.16098 4.30216 7.74881 4.6331C7.5015 4.71583 7.2542 4.71583 7.0069 4.55036C6.51229 4.13669 6.01769 3.72302 5.52308 3.39209C5.19335 3.14389 5.02848 3.14389 4.78118 3.39209C4.28657 3.80576 3.8744 4.30216 3.3798 4.71583C3.1325 4.96403 3.1325 5.21223 3.29736 5.54317C3.70953 6.03957 4.12171 6.53598 4.53388 7.03238C4.69874 7.28058 4.69874 7.44605 4.61631 7.69425C4.28657 8.19065 4.12171 8.76979 3.95684 9.34893C3.8744 9.59713 3.70953 9.7626 3.46223 9.7626C2.80276 9.84533 2.14329 9.92806 1.48381 10.0108C1.15408 10.0935 1.07164 10.1763 1.07164 10.5072C1.07164 11.1691 1.07164 11.8309 1.07164 12.5755C1.07164 12.9065 1.15408 12.9892 1.48381 13.072C2.06085 13.1547 2.72033 13.2374 3.3798 13.2374C3.70953 13.2374 3.8744 13.4856 4.03927 13.8166C4.20414 14.313 4.36901 14.8094 4.61631 15.223C4.78118 15.4712 4.78118 15.7194 4.53388 15.9676C4.12171 16.464 3.70953 17.0432 3.29736 17.5396C3.21493 17.6223 3.21493 17.705 3.21493 17.8705Z" fill="#40BFFF"/>
<path d="M6.67717 11.5C6.67717 8.85252 8.82045 6.70144 11.4583 6.70144C14.0962 6.70144 16.2395 8.85252 16.2395 11.5C16.2395 14.1475 14.0962 16.2986 11.4583 16.2986C8.82045 16.2986 6.67717 14.1475 6.67717 11.5ZM7.66638 11.5C7.66638 13.5684 9.31506 15.3058 11.4583 15.3058C13.6016 15.3058 15.2503 13.6511 15.2503 11.5C15.2503 9.43166 13.6016 7.69425 11.4583 7.69425C9.39749 7.69425 7.66638 9.43166 7.66638 11.5Z" fill="#40BFFF"/>
</svg>
