<svg width="23" height="23" viewBox="0 0 23 23" fill="none" xmlns="http://www.w3.org/2000/svg">
<path d="M22.9809 13.9306C22.7706 14.5645 22.6303 15.1984 22.3498 15.7618C21.7187 17.3818 20.737 18.7905 19.4047 19.9878C18.0023 21.1852 16.4596 22.1008 14.7065 22.5939C13.4443 22.946 12.112 23.0869 10.7797 22.946C7.97482 22.7347 5.52055 21.6078 3.487 19.6357C1.73395 17.8748 0.611999 15.7618 0.191267 13.3671C-0.229466 11.0428 0.0510227 8.8594 0.96261 6.67597C1.73395 4.84471 2.99615 3.29519 4.60896 2.02739C5.80103 1.11176 7.06323 0.477861 8.5358 0.0552625C8.95653 -0.0856037 9.30714 0.0552625 9.44738 0.336995C9.65775 0.618727 9.65775 0.970893 9.37726 1.32306C8.32543 2.59085 7.76445 4.14038 7.62421 5.76034C7.41384 7.5916 7.83457 9.35243 8.74616 10.9724C9.65775 12.6628 11.0602 13.8602 12.8132 14.6349C14.2858 15.2688 15.8285 15.4801 17.3712 15.2688C18.984 15.0575 20.3864 14.4236 21.6486 13.4376C21.7889 13.2967 21.9992 13.2263 22.1395 13.1558C22.4901 13.0854 22.7706 13.2263 22.9809 13.7193C22.9809 13.7193 22.9809 13.8602 22.9809 13.9306ZM6.99311 2.37955C3.55713 4.14038 1.03273 8.2255 1.73395 12.8741C2.43517 17.4522 6.22177 20.9739 10.8498 21.3965C15.2675 21.7487 19.0541 19.2131 20.737 15.8323C16.5297 17.5931 12.5328 17.2409 9.16689 13.9306C5.87116 10.6907 5.3803 6.74641 6.99311 2.37955Z" fill="#40BFFF"/>
</svg>
