<svg width="46" height="47" viewBox="0 0 46 47" fill="none" xmlns="http://www.w3.org/2000/svg">
<path d="M46 4.70754V42.076C45.948 42.2845 45.898 42.493 45.8461 42.6848C45.54 43.8577 44.8909 44.8913 43.9964 45.6301C43.1019 46.3688 42.0104 46.7729 40.8859 46.7815C28.9613 46.7815 17.0367 46.7815 5.11217 46.7815C3.76266 46.7663 2.47219 46.1794 1.51681 45.1461C0.561435 44.1128 0.0170111 42.7153 0 41.2525C0 29.3481 0 17.4431 0 5.53731C0.0179367 4.07441 0.562155 2.67693 1.51671 1.64261C2.47126 0.608286 3.76068 0.0188923 5.11025 0C17.0489 0 28.9882 0 40.9282 0C41.6339 0.00375726 42.3303 0.174522 42.9688 0.500359C44.644 1.33846 45.5826 2.79784 46 4.70754ZM23.3837 41.4652H39.1395C39.6646 41.4652 40.1781 41.3943 40.4608 40.8397C40.7435 40.2851 40.4435 39.8098 40.1992 39.3449L40.1742 39.3032C38.3637 36.5012 36.5526 33.6992 34.7409 30.8972C34.4766 30.4578 34.0826 30.1285 33.6234 29.9632C32.7752 29.6755 32.1001 30.0174 31.5078 30.647C30.7731 31.433 30.0787 32.2669 29.3094 33.0091C28.3381 33.9452 27.1149 33.843 26.2321 32.8006C26.0609 32.5921 25.9071 32.3836 25.7532 32.1564C23.017 28.28 20.2794 24.4043 17.5406 20.5293C16.579 19.1721 15.525 19.2784 14.7941 20.8087L14.7538 20.8942L6.37579 38.8654C6.22555 39.1646 6.11729 39.4864 6.0546 39.8202C5.99001 40.1407 6.03876 40.4758 6.1912 40.7592C6.34364 41.0426 6.58866 41.2536 6.87778 41.3505C7.20879 41.4529 7.55378 41.4917 7.89714 41.4652H23.3837ZM24.8108 13.8516C24.8052 14.5595 24.9287 15.2616 25.1742 15.9177C25.4197 16.5737 25.7823 17.1707 26.2412 17.6744C26.7001 18.1781 27.2464 18.5785 27.8485 18.8527C28.4506 19.1269 29.0968 19.2694 29.7499 19.2722C31.0675 19.2575 32.3272 18.6833 33.2586 17.6729C34.19 16.6626 34.7187 15.2966 34.7312 13.8683C34.7262 12.4483 34.2025 11.0882 33.2747 10.0857C32.3469 9.08315 31.0906 8.5197 29.7806 8.51861C29.129 8.50607 28.4817 8.63504 27.8768 8.89793C27.2718 9.16081 26.7216 9.55229 26.2584 10.0493C25.7953 10.5463 25.4286 11.1388 25.1799 11.7918C24.9313 12.4448 24.8058 13.1452 24.8108 13.8516Z" fill="#40BFFF"/>
</svg>
