<svg width="17" height="23" viewBox="0 0 17 23" fill="none" xmlns="http://www.w3.org/2000/svg">
<path d="M10.9493 5.28038C10.6835 4.15825 9.67683 3.34152 8.52484 3.33441C7.35159 3.32731 6.3272 4.13339 6.05073 5.26617C5.79551 6.32438 6.25277 7.70928 7.71668 8.26324C6.15706 13.0323 4.59745 17.8013 3.02365 22.6023C3.10518 22.5632 3.15126 22.5419 3.19734 22.5171C4.90583 21.6186 6.61786 20.7202 8.3228 19.8183C8.44686 19.7508 8.53902 19.7544 8.65954 19.8183C10.3538 20.7096 12.0482 21.5973 13.7425 22.4851C13.8063 22.5171 13.8736 22.549 13.9764 22.5987C12.4026 17.7906 10.8395 13.0252 9.27984 8.25969C10.7438 7.70928 11.201 6.32793 10.9493 5.28038ZM6.86952 5.84499C6.87307 4.94658 7.61389 4.21152 8.51066 4.21507C9.40744 4.21862 10.1376 4.96078 10.1341 5.86274C10.1305 6.7647 9.39327 7.49266 8.49294 7.48911C7.59262 7.48556 6.86598 6.74695 6.86952 5.84499ZM4.53719 20.8161C4.83848 19.8964 5.12559 19.0193 5.41979 18.1244C6.12871 18.4937 6.8199 18.8559 7.54299 19.2359C6.52924 19.7686 5.55448 20.2799 4.53719 20.8161ZM12.4664 20.8197C11.4349 20.2799 10.4566 19.7686 9.44289 19.2359C10.1695 18.8559 10.8643 18.4902 11.5803 18.1102C11.8745 19.0086 12.1616 19.8893 12.4664 20.8197ZM11.3003 17.258C11.0734 17.3787 10.8536 17.4924 10.6339 17.6095C9.9604 17.9646 9.28693 18.3197 8.60991 18.6713C8.5532 18.6997 8.4575 18.7175 8.40433 18.6891C7.51818 18.231 6.63558 17.7658 5.75298 17.3042C5.7388 17.297 5.72462 17.2828 5.69981 17.2615C6.62495 14.4349 7.55363 11.6012 8.47876 8.77103C8.49294 8.77103 8.50712 8.77103 8.5213 8.77103C9.44643 11.5977 10.3716 14.4207 11.3003 17.258Z" fill="#40BFFF"/>
<path d="M15.3837 1.33164C14.9831 0.859352 14.5294 0.450984 14.0154 0.106534C13.8028 -0.0355069 13.5405 0.0142075 13.4022 0.209514C13.2569 0.411922 13.3065 0.678249 13.5192 0.834495C13.544 0.85225 13.5688 0.866454 13.5936 0.884209C16.7873 3.11425 16.9823 7.7661 13.9871 10.2589C13.9339 10.3051 13.8737 10.3477 13.8276 10.401C13.7106 10.5395 13.6858 10.6992 13.7567 10.8661C13.8276 11.0295 13.9623 11.1289 14.1324 11.1005C14.2777 11.0757 14.4372 11.0295 14.5471 10.9372C16.1457 9.57357 16.9539 7.83712 17 5.98348C17 4.1263 16.4258 2.55674 15.3837 1.33164Z" fill="#40BFFF"/>
<path d="M3.18319 10.9656C3.35333 10.7596 3.29661 10.5146 3.0733 10.298C2.73657 9.97128 2.37857 9.65524 2.095 9.28238C0.170291 6.7576 0.588552 3.19948 3.03077 1.17539C3.18673 1.04755 3.35333 0.937471 3.50929 0.813185C3.66525 0.69245 3.71842 0.497144 3.65462 0.319592C3.59081 0.13849 3.42422 0.0248572 3.21863 0C3.11584 0.0532654 3.00596 0.0923267 2.91025 0.156245C-0.311772 2.4076 -0.847004 6.7576 1.24784 9.61618C1.61648 10.1204 2.03829 10.5714 2.50617 10.9833C2.74366 11.1893 3.01305 11.1715 3.18319 10.9656Z" fill="#40BFFF"/>
<path d="M11.7469 2.32237C13.505 3.55458 14.0438 5.86629 13.0017 7.73768C12.7536 8.18156 12.431 8.56152 12.0411 8.88822C11.8958 9.00895 11.8391 9.1652 11.8852 9.3463C11.9277 9.5132 12.0411 9.62328 12.2077 9.66589C12.3779 9.7085 12.5161 9.64458 12.6472 9.5345C13.8063 8.52601 14.3805 7.24409 14.4124 5.82723C14.4018 4.82229 14.1821 3.98425 13.7354 3.21013C13.342 2.53543 12.8209 1.97792 12.1687 1.54825C11.9986 1.43461 11.8036 1.44171 11.6548 1.5518C11.5023 1.66543 11.4279 1.82878 11.4917 2.00278C11.5342 2.12706 11.637 2.2478 11.7469 2.32237Z" fill="#40BFFF"/>
<path d="M4.34581 9.5274C4.57975 9.73336 4.84559 9.72981 5.01928 9.53095C5.19296 9.33209 5.15752 9.06577 4.92712 8.86336C4.9094 8.84915 4.89167 8.8314 4.87395 8.81719C2.87126 7.04168 3.0414 3.90612 5.21777 2.35433C5.27094 2.31526 5.32766 2.28331 5.37728 2.24069C5.52261 2.11641 5.56869 1.914 5.49425 1.74C5.42336 1.56955 5.26031 1.44881 5.07599 1.47722C4.95902 1.49498 4.8385 1.54824 4.73926 1.61571C3.3356 2.6242 2.63732 4.002 2.58415 5.67809C2.62314 7.24764 3.19382 8.52246 4.34581 9.5274Z" fill="#40BFFF"/>
</svg>
