<svg width="15" height="23" viewBox="0 0 15 23" fill="none" xmlns="http://www.w3.org/2000/svg">
<path d="M6.55211 23C5.97217 22.8374 5.77886 22.4579 5.77886 21.97C5.77886 19.4762 5.77886 17.0367 5.77886 14.5429C5.77886 14.4345 5.77886 14.3803 5.77886 14.2177C5.64998 14.3261 5.58554 14.3261 5.5211 14.3803C4.29679 15.5187 3.07247 16.6572 1.78371 17.7956C1.39708 18.1751 0.817144 18.2293 0.430517 17.9583C-0.0849854 17.633 -0.149423 17.0909 0.301642 16.7114C1.01046 16.0609 1.71927 15.4103 2.42809 14.7598C3.58797 13.8382 4.61898 12.8623 5.64998 11.9407C5.90773 11.6697 5.90773 11.3444 5.64998 11.0734C3.91016 9.5012 2.17034 7.87485 0.430517 6.3027C0.0438902 5.92321 -0.0205476 5.48952 0.301642 5.16424C0.688268 4.73055 1.39708 4.73055 1.84815 5.16424C2.42809 5.70636 3.00803 6.24848 3.58797 6.7906C4.23235 7.38694 4.94116 8.03748 5.58554 8.63381C5.64998 8.68803 5.71442 8.74224 5.84329 8.79645C5.84329 8.74224 5.84329 8.63381 5.84329 8.5796C5.84329 6.08585 5.84329 3.53788 5.84329 1.04413C5.84329 0.447798 6.10105 0.122526 6.55211 0.0141022C6.93874 -0.0401099 7.19649 0.0683142 7.45424 0.23095C8.93631 1.26098 10.3539 2.23679 11.836 3.26682C12.6093 3.80894 13.3825 4.35106 14.1558 4.83897C14.8001 5.32688 14.8646 5.76058 14.2846 6.3027C12.4804 7.98327 10.6761 9.60963 8.87187 11.2902C8.80743 11.3444 8.743 11.3986 8.67856 11.4528C8.743 11.507 8.80743 11.5613 8.87187 11.6155C10.6761 13.296 12.4804 14.9766 14.3491 16.6572C14.8646 17.1451 14.8646 17.633 14.2202 18.0667C11.9649 19.5846 9.774 21.1568 7.51868 22.6747C7.32536 22.7831 7.13205 22.8916 6.93874 22.9458C6.8743 23 6.74542 23 6.55211 23ZM7.77643 2.56207C7.77643 5.05582 7.77643 7.44115 7.77643 9.9349C9.32294 8.52539 10.805 7.11588 12.3515 5.70636C10.805 4.67634 9.32294 3.64631 7.77643 2.56207ZM7.77643 13.0792C7.77643 15.573 7.77643 17.9583 7.77643 20.452C9.32294 19.3678 10.805 18.3378 12.3515 17.3077C10.805 15.844 9.32294 14.4887 7.77643 13.0792Z" fill="#40BFFF"/>
</svg>
