<svg width="23" height="19" viewBox="0 0 23 19" fill="none" xmlns="http://www.w3.org/2000/svg">
<path d="M22.7029 4.69049C22.4446 4.42981 22.1806 4.16913 21.9055 3.93017C18.0084 0.557643 13.4768 -0.631704 8.36126 0.313256C5.44689 0.845475 2.94806 2.19232 0.814226 4.17999C0.510997 4.46782 0.162845 4.73393 0 5.14124C0 5.27158 0 5.40192 0 5.53226C0.0168461 5.56485 0.0393075 5.592 0.0505382 5.62459C0.320075 6.24913 1.05007 6.39576 1.55545 5.92871C1.69584 5.79837 1.83061 5.65717 1.96537 5.52683C3.01545 4.52213 4.20028 3.69122 5.53112 3.06668C7.95134 1.92621 10.5007 1.52976 13.168 1.83388C14.8133 2.02396 16.3631 2.49101 17.8287 3.24046C19.1821 3.9356 20.3725 4.83712 21.4338 5.90699C21.8157 6.29257 22.3716 6.298 22.7366 5.95586C23.096 5.59743 23.0903 5.07607 22.7029 4.69049Z" fill="#40BFFF"/>
<path d="M11.5059 5.03265C10.0459 5.02722 8.65328 5.30962 7.31121 5.8527C5.89052 6.42837 4.64953 7.25928 3.56577 8.30742C3.33554 8.53552 3.22884 8.80706 3.30184 9.11661C3.45346 9.76831 4.23961 10.0181 4.76745 9.58366C5.24476 9.19808 5.68275 8.76361 6.19375 8.43233C9.22043 6.45552 12.3931 6.2057 15.6893 7.76978C16.6327 8.2151 17.4413 8.84507 18.1938 9.55108C18.57 9.90408 19.1203 9.88236 19.4628 9.54022C19.811 9.19265 19.811 8.66586 19.4404 8.31286C17.2448 6.21113 14.6168 5.07609 11.5059 5.03265Z" fill="#40BFFF"/>
<path d="M11.4497 10.1104C9.74265 10.1593 8.28828 10.7947 7.0529 11.9352C6.8339 12.1361 6.74967 12.3968 6.80021 12.6901C6.92936 13.358 7.7099 13.6296 8.2602 13.206C8.59712 12.9453 8.92843 12.6629 9.29904 12.4565C10.3603 11.8537 11.489 11.6745 12.6851 12.0492C13.4319 12.2827 14.0665 12.6901 14.6449 13.2006C15.0211 13.5264 15.5658 13.4775 15.8915 13.1245C16.2115 12.7824 16.2059 12.261 15.8465 11.9297C14.628 10.7947 13.1736 10.1593 11.4497 10.1104Z" fill="#40BFFF"/>
<path d="M11.4216 15.4218C10.5962 15.4489 9.94478 16.106 9.97286 16.8935C10.0065 17.681 10.6804 18.3055 11.4834 18.2784C12.3088 18.2512 12.9602 17.5941 12.9321 16.8066C12.9041 16.0192 12.2246 15.3946 11.4216 15.4218Z" fill="#40BFFF"/>
</svg>
