<svg width="46" height="29" viewBox="0 0 46 29" fill="none" xmlns="http://www.w3.org/2000/svg">
<path d="M45.3155 23.4156C44.9405 24.8068 44.1409 25.7089 42.7958 25.983C42.0616 26.1325 41.389 25.9214 40.7612 25.5345C38.2924 24.0083 35.8296 22.4689 33.3607 20.9453C33.2472 20.888 33.1526 20.7945 33.0895 20.6774C33.0264 20.5602 32.9978 20.425 33.0075 20.2897C33.0139 16.4085 33.0139 12.5282 33.0075 8.64871C32.9976 8.51374 33.0258 8.37869 33.0885 8.26156C33.1512 8.14443 33.2453 8.05078 33.3583 7.99311C35.8066 6.47734 38.25 4.92355 40.7128 3.41434C42.5273 2.30506 44.3937 3.04327 45.1969 5.13204C45.2308 5.21989 45.2756 5.30249 45.3179 5.38772L45.3155 23.4156Z" fill="#40BFFF"/>
<path d="M15.3009 0.00524483C18.6879 0.00524483 22.0748 -0.00655604 25.4618 0.00524483C27.4299 0.0222905 28.9661 0.91129 29.987 2.75878C30.4709 3.6268 30.6572 4.59447 30.6572 5.60017C30.6572 11.526 30.6572 17.4513 30.6572 23.3762C30.6572 26.59 28.4569 28.9856 25.4884 28.9921C20.1411 29.0026 14.7929 29.0026 9.44389 28.9921C7.99959 28.9921 6.55529 29.0013 5.11099 28.9921C2.52843 28.9672 0.498671 27.1171 0.0511078 24.3767C0.011224 24.0785 -0.00536651 23.7771 0.00151291 23.4759C0.00151291 17.4985 0.00151291 11.5233 0.00151291 5.55035C0.00151291 2.41 2.17885 0.0288466 5.09043 0.0144233C8.49312 -0.00393362 11.897 0.00524483 15.3009 0.00524483Z" fill="#40BFFF"/>
</svg>
