<svg width="30" height="30" viewBox="0 0 30 30" fill="none" xmlns="http://www.w3.org/2000/svg">
<g clip-path="url(#clip0_238_445)">
<path d="M30 15.752C29.6825 16.6227 29.127 17.3351 28.1746 17.6517C27.8571 17.7309 27.5397 17.81 27.2222 17.81C26.9048 17.81 26.8254 17.9683 26.8254 18.2058C26.8254 20.8971 26.8254 23.6676 26.8254 26.3589C26.8254 27.3087 26.6667 28.1794 26.0317 28.8918C25.3968 29.6042 24.6032 30 23.6508 30C22.0635 30 20.4762 30 18.8889 30C18.1746 30 17.8571 29.6834 17.8571 28.971C17.8571 26.6755 17.8571 24.4591 17.8571 22.1636C17.8571 21.5304 17.5397 21.0554 16.9841 20.7388C16.8254 20.6596 16.6667 20.5805 16.4286 20.5805C15.4762 20.5805 14.6032 20.5805 13.6508 20.5805C12.7778 20.5805 12.2222 21.2137 12.2222 22.0844C12.2222 24.38 12.2222 26.5963 12.2222 28.8918C12.2222 29.6834 11.9048 30 11.1111 30C9.60317 30 8.09523 30 6.5873 30C4.7619 30 3.33333 28.4961 3.25396 26.9129C3.25396 26.2797 3.25396 25.6465 3.25396 25.0132C3.25396 22.7968 3.25396 20.5805 3.25396 18.3641C3.25396 17.8892 3.25396 17.8892 2.69841 17.81C1.90476 17.7309 1.26984 17.4934 0.71428 16.8602C-0.317466 15.6728 -0.238101 14.0897 0.952376 12.9815C1.5873 12.19 2.38095 11.4776 3.09523 10.7652C6.3492 7.5198 9.60317 4.27442 12.8571 1.02904C13.0952 0.791569 13.3333 0.633258 13.5714 0.474947C14.3651 -0.0791429 16.1905 -0.079143 16.9048 0.712414C17.0635 0.870725 17.2222 0.949881 17.3809 1.10819C21.2698 4.98682 25.1587 8.86545 28.9683 12.6649C29.4444 13.1399 29.8413 13.6148 30.0794 14.248C30 14.723 30 15.1979 30 15.752ZM5.07936 21.7678C5.07936 23.3509 5.07936 24.934 5.07936 26.5963C5.07936 27.5462 5.71428 28.1794 6.66666 28.1794C7.77777 28.1794 8.96825 28.1794 10.0794 28.1794C10.3968 28.1794 10.3968 28.1003 10.3968 27.8628C10.3968 26.2005 10.3968 24.5383 10.3968 22.9552C10.3968 22.5594 10.3968 22.1636 10.3968 21.7678C10.5556 20.1847 11.9048 18.9182 13.4921 18.8391C14.5238 18.8391 15.5556 18.8391 16.5873 18.8391C17.5397 18.8391 18.254 19.2348 18.8889 19.9472C19.5238 20.6596 19.7619 21.4512 19.7619 22.3219C19.7619 24.2216 19.7619 26.0422 19.7619 27.942C19.7619 28.1794 19.8413 28.2586 20.0794 28.2586C21.1905 28.2586 22.3016 28.2586 23.3333 28.2586C24.4444 28.2586 25 27.7045 25 26.5963C25 23.4301 25 20.2639 25 17.0185C25 16.3852 25.3175 15.9895 26.0317 15.9895C26.4286 15.9895 26.8254 15.9895 27.1429 15.9895C27.619 15.9895 27.9365 15.8311 28.0952 15.3562C28.254 14.9604 28.1746 14.5647 27.8571 14.248C27.4603 13.8523 26.9841 13.3773 26.5873 12.9815C23.0952 9.34038 19.4444 5.77838 15.873 2.13722C15.3968 1.66228 14.8413 1.58313 14.3651 2.05806C10.3175 6.17415 6.19047 10.2111 2.14285 14.248C1.82539 14.5647 1.74603 14.9604 1.90476 15.3562C2.06349 15.752 2.46031 15.9895 2.85714 15.9895C3.25396 15.9895 3.57142 15.9895 3.96825 15.9895C4.68253 15.9895 5 16.3061 5 17.0976C5.07936 18.6016 5.07936 20.1847 5.07936 21.7678Z" fill="#40BFFF"/>
</g>
<defs>
<clipPath id="clip0_238_445">
<rect width="30" height="30" fill="white"/>
</clipPath>
</defs>
</svg>
