<svg width="22" height="23" viewBox="0 0 22 23" fill="none" xmlns="http://www.w3.org/2000/svg">
<path d="M22 15.944C21.6857 16.497 21.45 16.576 20.8214 16.339C18.3071 15.391 15.7929 14.522 13.2 13.574C13.1214 13.574 13.1214 13.574 13.0429 13.495C12.8857 13.416 12.8071 13.495 12.8071 13.653C12.8071 14.996 12.8071 16.339 12.8071 17.682C12.8071 17.84 12.8857 17.919 12.9643 17.998C13.5143 18.472 14.0643 18.9459 14.6143 19.3409C14.9286 19.5779 15.0071 19.8149 15.0071 20.2099C15.0071 20.5259 15.0071 20.8419 15.0071 21.1579C15.0071 21.7109 14.5357 22.1059 13.9857 21.9479C13.0429 21.6319 12.1 21.3949 11.1571 21.0789C11 20.9999 10.9214 20.9999 10.7643 21.0789C9.82143 21.3949 8.95714 21.6319 8.01429 21.9479C7.38571 22.1849 6.83571 21.7109 6.91429 21.0789C6.91429 20.7629 6.91429 20.4469 6.91429 20.1309C6.91429 19.8149 6.99286 19.5779 7.30714 19.4199C7.85714 18.9459 8.40714 18.472 8.95714 18.077C9.11429 17.998 9.11429 17.84 9.11429 17.682C9.11429 16.418 9.11429 15.075 9.11429 13.811C9.11429 13.574 9.11429 13.574 8.87857 13.653C6.28571 14.601 3.69286 15.549 1.17857 16.418C0.55 16.576 0.314286 16.497 0 15.944C0 15.154 0 14.364 0 13.574C0.0785714 13.337 0.235714 13.179 0.471429 13.1C3.3 11.2831 6.12857 9.46608 8.95714 7.6491C9.11429 7.5701 9.11429 7.41211 9.11429 7.25411C9.11429 5.43713 9.11429 3.62016 9.11429 1.88218C9.11429 1.0132 9.66429 0.223207 10.5286 0.0652089C11.7071 -0.250787 12.8071 0.618201 12.8071 1.88218C12.8071 3.69916 12.8071 5.43713 12.8071 7.25411C12.8071 7.49111 12.8857 7.5701 13.0429 7.7281C15.8714 9.54508 18.6214 11.3621 21.45 13.1C21.6857 13.258 21.8429 13.416 21.9214 13.574C22 14.364 22 15.154 22 15.944ZM12.1 4.72614C12.1 3.77816 12.1 2.75117 12.1 1.80318C12.1 1.17119 11.4714 0.6972 10.8429 0.776199C10.2929 0.855198 9.97857 1.32919 9.97857 1.88218C9.97857 3.77816 9.97857 5.67413 9.97857 7.49111C9.97857 7.7281 9.9 7.9651 9.66429 8.0441C8.8 8.59709 7.93571 9.15008 7.07143 9.70307C5.02857 10.9671 3.06429 12.31 1.02143 13.574C0.864286 13.653 0.785714 13.811 0.785714 13.969C0.785714 14.364 0.785714 14.759 0.785714 15.075C0.785714 15.47 0.785714 15.47 1.17857 15.312C3.92857 14.364 6.6 13.337 9.35 12.389C9.74286 12.231 9.97857 12.389 9.97857 12.863C9.97857 14.443 9.97857 16.023 9.97857 17.682C9.97857 17.998 9.9 18.235 9.66429 18.393C9.11429 18.7879 8.64286 19.2619 8.09286 19.6569C7.85714 19.8149 7.7 20.0519 7.77857 20.3679C7.77857 20.5259 7.77857 20.6839 7.77857 20.8419C7.77857 20.9999 7.85714 21.0789 8.01429 20.9999C8.87857 20.7629 9.74286 20.4469 10.6071 20.2099C10.9214 20.1309 11.2357 20.1309 11.4714 20.2099C12.3357 20.4469 13.2 20.7629 14.0643 20.9999C14.2214 21.0789 14.3 20.9999 14.3 20.8419C14.3 20.6049 14.3 20.3679 14.3 20.1309C14.3 19.9729 14.2214 19.8939 14.1429 19.8149C13.5929 19.3409 13.0429 18.8669 12.4143 18.393C12.1786 18.156 12.1 17.919 12.1 17.603C12.1 16.023 12.1 14.443 12.1 12.863C12.1 12.389 12.3357 12.231 12.7286 12.389C13.9857 12.863 15.2429 13.337 16.5786 13.732C18.0714 14.285 19.5643 14.838 21.0571 15.391C21.2929 15.47 21.2929 15.47 21.2929 15.233C21.2929 14.838 21.2929 14.443 21.2929 14.127C21.2929 13.811 21.2143 13.653 20.9786 13.495C18.15 11.678 15.3214 9.86107 12.4143 8.0441C12.1786 7.8861 12.1 7.7281 12.1 7.41211C12.1 6.62212 12.1 5.67413 12.1 4.72614Z" fill="#40BFFF"/>
</svg>
