<svg width="50" height="50" viewBox="0 0 50 50" fill="none" xmlns="http://www.w3.org/2000/svg">
<path d="M30.5025 0H19.4938C18.4505 0.365917 17.8763 1.06116 17.7349 2.15037C17.5147 3.8409 17.227 5.52412 16.9843 7.21221C16.9734 7.34871 16.9234 7.47948 16.84 7.58966C16.7566 7.69984 16.6432 7.78501 16.5127 7.83548C15.6669 8.22202 14.858 8.68123 14.0958 9.20767C13.773 9.43332 13.4815 9.43819 13.12 9.29305C11.5525 8.66002 9.97125 8.04161 8.3925 7.43176C6.95136 6.8719 5.85675 7.24026 5.08489 8.5417C3.55618 11.1186 2.02747 13.695 0.498761 16.2711C-0.344406 17.6945 -0.126734 18.7874 1.21433 19.8083C2.51536 20.7987 3.80888 21.7988 5.12367 22.7722C5.28233 22.8746 5.40541 23.0215 5.47666 23.1936C5.54791 23.3656 5.56397 23.5546 5.52273 23.7358C5.40514 24.5416 5.40514 25.3596 5.52273 26.1654C5.58653 26.6094 5.48896 26.9229 5.09615 27.2107C3.7776 28.1792 2.48658 29.183 1.18806 30.1759C-0.110471 31.1687 -0.340653 32.2677 0.491255 33.6728L5.07238 41.3998C5.84049 42.6951 6.96137 43.0805 8.38 42.5304C9.97501 41.9108 11.57 41.2924 13.1575 40.6557C13.3053 40.5831 13.4712 40.5528 13.6359 40.5684C13.8006 40.5839 13.9575 40.6446 14.0883 40.7435C14.8662 41.2769 15.6894 41.7445 16.549 42.1413C16.6708 42.1911 16.7762 42.2729 16.8533 42.3775C16.9303 42.4822 16.9761 42.6056 16.9855 42.7341C17.2357 44.4865 17.4955 46.238 17.7649 47.9887C17.9513 49.2206 18.8558 49.9927 20.1318 50C23.3668 50 26.6019 50 29.837 50C31.1493 50 32.0387 49.2462 32.2364 47.9728C32.5066 46.2392 32.7651 44.5039 33.012 42.7671C33.0207 42.6308 33.0683 42.4997 33.1495 42.3885C33.2306 42.2773 33.342 42.1904 33.4711 42.1377C34.3188 41.7546 35.1286 41.2965 35.8905 40.7692C36.2308 40.5325 36.5335 40.535 36.9113 40.6862C38.4513 41.3071 40.0013 41.9059 41.5512 42.5048C43.1012 43.1037 44.1258 42.7488 44.9589 41.351C46.481 38.792 47.9997 36.2306 49.515 33.6667C50.3269 32.2945 50.1105 31.1785 48.8345 30.2003C47.511 29.1855 46.1887 28.1694 44.8513 27.1717C44.5373 26.9363 44.4097 26.6838 44.466 26.2996C44.5924 25.429 44.5924 24.5454 44.466 23.6748C44.411 23.2906 44.5323 23.0381 44.8476 22.8015C46.2229 21.7712 47.5902 20.7304 48.9496 19.679C50.0755 18.8093 50.3082 17.6518 49.5901 16.4345C48.0372 13.7983 46.4768 11.1661 44.9089 8.53804C44.1283 7.2305 43.0387 6.87801 41.5963 7.4403C40.0025 8.06113 38.4075 8.68075 36.8175 9.31501C36.6767 9.38335 36.519 9.41181 36.3625 9.39715C36.2059 9.38248 36.0567 9.32529 35.9318 9.23206C35.1546 8.69784 34.3318 8.22978 33.4723 7.83305C33.3426 7.78185 33.2303 7.69595 33.1484 7.58525C33.0665 7.47454 33.0183 7.34354 33.0095 7.20733C32.7743 5.5168 32.4941 3.83358 32.2739 2.14305C32.125 1.05628 31.5508 0.35738 30.5025 0ZM33.4711 24.9689C33.4718 27.1568 32.5833 29.2558 31.0002 30.8064C29.4171 32.357 27.2684 33.2329 25.0244 33.2423C20.3532 33.2423 16.5327 29.5502 16.5252 25.0165C16.5187 22.8255 17.4052 20.7217 18.9896 19.168C20.574 17.6142 22.7266 16.7378 24.9737 16.7315C27.2209 16.7252 29.3786 17.5895 30.9722 19.1343C32.5657 20.6791 33.4646 22.7779 33.4711 24.9689Z" fill="#40BFFF"/>
</svg>
