<svg width="21" height="23" viewBox="0 0 21 23" fill="none" xmlns="http://www.w3.org/2000/svg">
<path d="M10.1739 22.8527C9.62394 22.7186 9.074 22.4503 8.79903 22.048C8.24909 21.5115 7.97412 20.7067 8.1116 19.902C8.1116 19.7678 8.1116 19.6337 7.83663 19.6337C6.04933 19.6337 4.26203 19.6337 2.47473 19.6337C1.09988 19.6337 0 18.5607 0 17.0853C0 15.8782 1.09988 14.9393 2.33724 14.8052C2.88718 14.8052 3.02467 14.5369 3.02467 14.0004C3.02467 12.6592 3.02467 11.3179 3.02467 9.97668C3.02467 7.83067 3.84957 6.08704 5.36191 4.61166C6.18682 4.07516 7.01172 3.53866 8.1116 3.27041C8.24909 3.13628 8.24909 3.13628 8.24909 3.00216C7.97412 1.6609 8.79903 0.319648 10.0364 0.0513973C11.2738 -0.216853 12.6486 0.587899 12.9236 1.92915C13.0611 2.33153 13.0611 2.59978 12.9236 3.00216C12.9236 3.13628 12.9236 3.27041 13.0611 3.27041C14.8484 3.94103 16.2232 5.01404 17.1856 6.75767C17.7355 7.69655 18.0105 8.63542 18.0105 9.70843C18.148 11.1838 18.0105 12.7933 18.0105 14.2687C18.0105 14.8052 18.148 14.9393 18.6979 15.0734C19.6603 15.0734 20.3477 15.6099 20.7602 16.4147C21.1727 17.2194 21.0352 18.1583 20.4852 18.829C20.0728 19.4996 19.3854 19.7678 18.5604 19.7678C16.7731 19.7678 14.9858 19.7678 13.1985 19.7678C13.0611 19.7678 12.9236 19.7678 12.9236 20.0361C13.1985 21.3773 12.2361 22.5845 10.9988 22.8527H10.8613C10.7238 22.8527 10.4488 22.8527 10.1739 22.8527ZM10.5863 18.2925C13.1985 18.2925 15.6733 18.2925 18.2855 18.2925C18.423 18.2925 18.5604 18.2925 18.6979 18.2925C19.1104 18.2925 19.5228 18.1583 19.6603 17.6218C19.9353 16.9512 19.5228 16.2806 18.6979 16.2806C17.5981 16.1464 16.7731 15.3417 16.7731 14.2687C16.7731 12.9274 16.7731 11.5862 16.7731 10.2449C16.7731 9.17192 16.4982 8.09892 15.9482 7.16004C14.4359 4.34341 10.5863 3.27041 7.69915 4.87991C5.49939 6.08704 4.537 7.9648 4.39951 10.2449C4.39951 11.5862 4.39951 12.9274 4.39951 14.4028C4.39951 15.3417 3.71209 16.0123 2.88718 16.2806C2.61221 16.2806 2.47473 16.2806 2.19976 16.4147C1.7873 16.4147 1.37485 16.8171 1.37485 17.3536C1.37485 17.8901 1.7873 18.2925 2.19976 18.2925C2.33724 18.2925 2.47473 18.2925 2.61221 18.2925C5.36191 18.2925 7.97412 18.2925 10.5863 18.2925ZM10.5863 19.7678C10.3114 19.7678 10.0364 19.7678 9.76142 19.7678C9.62394 19.7678 9.62394 19.7678 9.48645 19.902C9.21148 20.3043 9.34897 20.975 9.76142 21.2432C10.1739 21.6456 10.8613 21.6456 11.2738 21.2432C11.6862 20.975 11.8237 20.3043 11.6862 19.902C11.6862 19.7678 11.5487 19.7678 11.4112 19.7678C11.1363 19.7678 10.8613 19.7678 10.5863 19.7678ZM10.5863 1.39265C9.8989 1.39265 9.48645 2.06328 9.62394 2.59978C9.62394 2.73391 9.76142 2.86803 9.8989 2.86803C10.3114 2.86803 10.7238 2.86803 11.2738 2.86803C11.4112 2.86803 11.5487 2.86803 11.5487 2.59978C11.6862 2.06328 11.2738 1.39265 10.5863 1.39265Z" fill="#40BFFF"/>
</svg>
